<?xml version="1.0" encoding="UTF-8"?>
<!DOCTYPE svg  PUBLIC '-//W3C//DTD SVG 1.1//EN'  'http://www.w3.org/Graphics/SVG/1.1/DTD/svg11.dtd'>
<svg clip-rule="evenodd" fill-rule="evenodd" image-rendering="optimizeQuality" shape-rendering="geometricPrecision" text-rendering="geometricPrecision" version="1.1" viewBox="0 0 512 512" xmlns="http://www.w3.org/2000/svg">
<path d="m238.5 9.5c11.338-0.16652 22.672 1.4e-4 34 0.5 7.249 1.125 13.582 4.125 19 9 68.861 68.527 137.36 137.36 205.5 206.5 8.663 12.987 8.663 25.987 0 39-6.864 7.198-14.03 14.032-21.5 20.5-5.212 3.22-10.878 4.72-17 4.5 0.486 63.379-0.014 126.71-1.5 190-3.57 10.569-10.737 17.403-21.5 20.5-17.291 1.131-34.625 1.631-52 1.5-17.375 0.131-34.709-0.369-52-1.5-12.379-3.711-19.879-11.878-22.5-24.5-0.333-45.667-0.667-91.333-1-137-1.167-3.833-3.667-6.333-7.5-7.5-30-0.667-60-0.667-90 0-3.833 1.167-6.333 3.667-7.5 7.5-0.333 45.667-0.667 91.333-1 137-3.369 14.7-12.535 23.2-27.5 25.5-31.333 0.667-62.667 0.667-94 0-14.965-2.3-24.131-10.8-27.5-25.5-0.5-61.999-0.6667-124-0.5-186-6.1217 0.22-11.788-1.28-17-4.5-9.2041-7.537-17.371-16.037-24.5-25.5-5.7523-14.489-3.419-27.489 7-39 68.527-68.861 137.36-137.36 206.5-205.5 4.517-2.5545 9.184-4.3879 14-5.5zm5 22c9.724-0.3589 19.391 0.1411 29 1.5l206.5 206.5c2 3.667 2 7.333 0 11l-15.5 15.5c-4.198 2.161-8.198 1.828-12-1l-189-189c-4.667-3.3333-9.333-3.3333-14 0l-189 189c-3.8021 2.828-7.8021 3.161-12 1-5.1667-5.167-10.333-10.333-15.5-15.5-2-3.667-2-7.333 0-11l206.5-206.5c1.882-0.1981 3.548-0.6981 5-1.5zm11 70c60.917 59.416 121.42 119.42 181.5 180 0.667 63 0.667 126 0 189-0.979 3.125-2.813 5.625-5.5 7.5-29.952 1.635-59.952 1.968-90 1-3.615-0.614-6.449-2.447-8.5-5.5-1.319-46.608-1.985-93.275-2-140-3.61-13.277-12.11-21.444-25.5-24.5-33-0.667-66-0.667-99 0-12.833 3.5-21 11.667-24.5 24.5-0.333 45.667-0.667 91.333-1 137-0.979 3.125-2.813 5.625-5.5 7.5-29.952 1.635-59.952 1.968-90 1-3.6152-0.614-6.4486-2.447-8.5-5.5-1.6558-63.942-1.9891-127.94-1-192 60.035-59.868 119.87-119.87 179.5-180z" fill="#fd5631" opacity=".947"/>
</svg>
