<?xml version="1.0" encoding="UTF-8"?>
<!DOCTYPE svg  PUBLIC '-//W3C//DTD SVG 20010904//EN'  'http://www.w3.org/TR/2001/REC-SVG-20010904/DTD/svg10.dtd'>
<svg width="512pt" height="512pt" version="1.0" viewBox="0 0 512 512" xmlns="http://www.w3.org/2000/svg">
<g transform="translate(0 512) scale(.1 -.1)">
<path d="m2230 4469c-258-8-492-26-775-59-245-29-299-46-362-112-87-90-269-467-400-828l-20-55-72-3-71-3v66c0 71-10 100-44 127-34 28-69 22-264-43-144-48-186-66-199-85-21-32-29-151-13-198 21-64 41-70 249-76l186-5-161-128-161-127-31-98c-88-275-87-267-87-1102 0-685 1-739 18-795 40-130 119-239 202-280 37-18 61-20 310-20 258 0 272 1 310 22 108 57 215 247 215 380v44l48-6c183-21 433-25 1452-25s1269 4 1453 25l47 6v-44c0-133 107-323 215-380 38-21 52-22 310-22 249 0 273 2 310 20 83 41 162 150 202 280 17 56 18 110 18 805-1 838 2 809-82 1073l-37 117-160 128-161 127 186 5c208 6 228 12 249 76 16 47 8 166-13 198-13 19-55 37-199 85-195 65-230 71-264 43-34-27-44-56-44-127v-66l-142 6-38 105c-85 239-210 513-315 692-92 158-147 175-727 228-184 17-766 43-863 38-16-1-140-5-275-9zm810-209c366-22 798-72 836-96 23-15 125-198 194-349 40-86 140-335 155-382l6-23h-1670c-919 0-1671 1-1671 3s20 57 45 122c93 245 268 592 316 627 36 26 437 75 804 97 192 12 795 12 985 1zm1461-1187c87-70 159-129 159-133 0-3-34-14-75-23-344-80-675-239-810-388-37-42-45-81-23-122 16-32 34-42 123-76 295-111 575-118 1008-25l27 6v-417l-353-78c-393-88-452-104-518-141-78-44-132-99-249-256l-112-150h-2236l-112 150c-117 157-171 212-249 256-66 37-125 53-518 141l-353 78v417l27-6c434-93 711-86 1011 26 97 36 132 70 132 126 0 32-8 44-65 98-144 138-445 279-758 355-53 13-96 27-95 31 2 5 73 64 158 133l155 124 1784 1h1783l159-127zm-4056-343c66-16 176-48 245-71 144-47 377-156 364-169-5-5-54-17-109-26-172-28-478-8-672 45-56 15-57 22-7 199 18 63 14 63 179 22zm4409-22c50-177 49-184-6-199-195-53-501-73-673-45-55 9-104 21-109 26-12 12 216 121 349 165 128 43 358 103 397 104 25 1 29-4 42-51zm-4279-1104c187-41 358-83 380-93 23-10 57-33 77-50 40-35 143-169 136-176-2-3-47 2-99 9-52 8-123 17-158 21-158 16-563 101-634 132-21 9-45 29-53 44-19 37-20 189-1 189 7 0 166-34 352-76zm4335-4c0-134-17-149-215-195-137-33-401-81-486-90-35-4-106-13-158-21-52-7-97-12-99-9-8 8 99 144 141 180 22 19 59 42 82 51 45 17 675 161 713 163 21 1 22-2 22-79zm-4235-454 180-33-1-50c-2-55-41-152-76-190-21-23-26-23-244-23h-222l-30 34c-51 59-72 131-72 255v108l143-34c78-19 223-49 322-67zm4214-171c-11-31-35-72-51-91l-30-34h-222c-218 0-223 0-243 23-40 43-74 126-76 184l-2 56 180 33c99 18 243 48 320 66l140 34 3-107c2-89-1-116-19-164z"/>
<path d="m2400 2549c-222-13-424-57-611-133-162-65-261-128-365-231-109-108-136-165-135-281 1-209 142-345 406-394 42-8 316-10 900-8 929 4 882 0 1024 70 187 90 266 305 179 487-32 68-177 206-278 265-290 171-692 251-1120 225zm530-227c294-53 579-193 669-329 37-56 40-99 10-161-25-50-71-84-149-109-51-17-121-18-900-18s-849 1-900 18c-78 25-124 59-149 109-30 62-27 105 10 161 105 159 432 302 789 346 129 16 489 6 620-17z"/>
</g>
</svg>
