<svg xmlns="http://www.w3.org/2000/svg" fill="#FD5631" width="682.667" height="682.667" viewBox="0 0 512 512" preserveAspectRatio="xMidYMid meet" xmlns:v="https://vecta.io/nano"><path d="M253.3.7c-1.2.2-3.4 1.8-4.8 3.4-2.4 2.9-2.5 3.6-2.5 16 0 8.9-.4 14-1.4 16.4-2.8 6.7-.9 6.5-68 6.5-60.9 0-67.3.3-73.9 3.7-4.8 2.4-10.7 8.5-13.5 13.7-2.3 4.4-2.7 6.3-2.7 14.1 0 7.4.4 9.8 2.3 13.7 3.1 6.2 8.7 11.9 14.8 14.9l4.9 2.4 145.2.5 145.2.5 3 2.9c3.8 3.7 4.8 8.3 2.7 12.4-3.4 6.5 0 6.2-66.1 6.2-39 0-62.2.4-66.1 1.1-10.7 2-18.6 7.8-24 17.9-1.6 3-1.9 6.3-2.2 24.1l-.3 20.6-5.2.6c-4.1.5-5.8 1.3-7.9 3.7l-2.8 3v17.9 17.9l-54.7.5c-60.1.5-61.6.6-80.8 7.2-45.1 15.6-78.6 51.7-89.9 97.2-7.8 31-4 66.6 10 94.5 24.1 48.1 70.9 77 124.4 76.9 28.3 0 53.1-7.6 77-23.5 5.2-3.5 12.5-9.1 16.2-12.5l6.6-6.1H256h17.2l6.6 6.1c13.6 12.5 32.5 23.5 50.8 29.5 14.5 4.7 26.5 6.6 42.4 6.5 28.5 0 53.2-7.4 76.3-22.7 53.1-35.3 75-100.5 54-160.9-15.8-45.5-53.8-78.7-102.8-89.8-8.3-1.8-13.2-2-63.7-2.4l-54.8-.5v-17.9V199l-2.7-3c-2.2-2.4-3.9-3.2-8-3.7l-5.3-.6v-16.9c0-17.5.6-20.6 4.6-23.9 1.4-1.2 12.4-1.5 66.3-1.9 73.8-.6 70.1-.2 79.5-9.4 7.1-6.9 10-14.3 9.3-24.1-.7-11.8-7.2-21.6-17.6-26.7l-4.6-2.3-145-.5c-159.4-.5-147.9 0-151-6.6-1.9-4-1.9-5.8 0-9.4 3.3-6.3.1-6 66-6 39 0 62.2-.4 66.1-1.1 11.7-2.1 20.4-9.2 24.5-19.9 1.6-4.2 1.9-7.6 1.9-20.5V7l-2.7-2.9c-2.9-3-6.1-4.1-10-3.4zM262 224v11h-6-6v-11-11h6 6v11zm139 34.7c18.7 5.4 29.7 10.7 43.2 20.8 34.4 25.9 52.3 70.4 45.2 112.6-11.6 68.9-78.7 112.4-146.6 95-18.3-4.7-36.7-15.3-52.3-30.2l-9.3-8.9h-25.4-25.4l-6.4 6.6c-17 17.2-38.4 29.2-61 34-11.7 2.5-36.2 2.6-47.8 0-73.2-15.8-113.5-92-85.1-160.8 5.6-13.6 17.5-30.6 28.9-41.1 15.2-14.1 36.2-24.8 56-28.6l7.5-1.5c1.1-.2 62.5-.3 136.5-.2 134.4.2 134.5.2 142 2.3zm-35.1 30.6c-14.6 4.1-23.9 16-23.9 30.7 0 17.2 13.5 31.1 30.3 31.2 9.1 0 15.7-2.4 22.1-8.3 7.2-6.6 10-13 10.1-22.9 0-9-3-16.4-9-22.5-7.4-7.4-20-10.9-29.6-8.2zm14.7 23.1c2.7 2.7 3.4 4.2 3.4 7.4 0 11.8-16.2 15.3-20.7 4.5-3.1-7.5 2.3-15.3 10.6-15.3 2.4 0 4.2.9 6.7 3.4zm-252.3-11.6c-14 5-21.3 16.4-21.3 33.3v7.7l-10.2.4c-9.1.3-10.9.7-15.6 3.3-23 12.6-21.9 45.3 1.8 56.3 4.3 2 7.5 2.7 14.6 3l9.2.4.4 9.2c.3 7.2.9 10.2 3 14.6 5.9 12.1 15.5 18.1 29.1 18.2 5.7 0 8-.6 13.3-3.2 11.7-5.7 17.4-15.7 17.4-30.4v-8.3l9.8-.5c8.7-.4 10.5-.8 16.1-3.8 11.1-6 16.4-14.8 16.5-27.5.1-9.3-1.9-14.8-8-21.5s-12.1-9.3-23.9-9.9l-10-.6-.6-10c-.4-8.1-1.1-11-3.1-15.1-7.1-13.7-24.3-20.7-38.5-15.6zm16.6 20.8c4.2 3 5.1 7.1 5.1 24.4v16h16.5c17.7 0 20.7.7 23.9 5.2 2.1 3 2 9.8-.2 12.4-3.2 4-5.5 4.4-23.1 4.4H150v16.6c0 18.4-.9 22.3-6.1 24.9-4.8 2.5-8.7 1.9-12.5-1.9l-3.4-3.4v-18.1V384h-18.1-18.1l-3.4-3.4c-3.9-3.9-4.4-7.7-1.8-12.7 2.5-5 6.3-5.9 24.9-5.9H128v-18.1-18.1l2.9-2.9c2.4-2.3 3.8-2.9 7.3-2.9 2.4 0 5.4.7 6.7 1.6zm164.8 21.8c-21.8 7.8-28.3 35.8-12.1 52 6.2 6.1 13.4 9.1 22.4 9.1 9.9-.1 16.3-2.9 22.9-10.1 18.7-20.4 4.4-52.6-23.2-52.4-3.4.1-7.9.7-10 1.4zm14.8 20c3.8 1.6 6.5 6 6.5 10.7 0 2.2-1 4.1-3.4 6.5-2.8 2.8-4.2 3.4-7.6 3.4s-4.8-.6-7.6-3.4c-2.4-2.4-3.4-4.3-3.4-6.5 0-4.6 2.6-9 6.3-10.6 4.1-1.8 5-1.8 9.2-.1zm93.5-20.5c-9 2.9-16.5 9.4-20.2 17.6-3.3 7.3-3.2 19.1.1 26 3.2 6.4 9.3 12.4 15.6 15.5 7.5 3.6 18.9 3.5 26.7-.3 6.2-3 11.5-8.3 15-14.9 3.3-6.2 3.3-20.3 0-27-3-6-9-12-15-15-5-2.4-17.3-3.5-22.2-1.9zm16.1 22.7c3.4 3.3 4.3 6.6 2.9 11-2.6 7.8-12.1 10.1-17.9 4.3-2.4-2.4-3.1-3.9-3.1-7 0-5.1 1.3-7.5 5.3-10 4.1-2.6 9-1.9 12.8 1.7zm-69.6 30.7c-9 3-15.3 8.3-19.6 16.7-3.4 6.5-3.4 20.4-.1 27.2 3 6 9 12 15 15 6.7 3.3 20.8 3.3 27 0 6.6-3.5 11.9-8.8 14.9-15 3.8-7.8 4-19.2.3-26.7-3-6.3-9.2-12.4-15.4-15.4-5.8-2.9-16.3-3.7-22.1-1.8zm16.6 22.8c5.3 5.7 3.5 14.5-3.7 17.5-8.9 3.7-18.4-6-14-14.4 2.2-4.3 5.4-6.2 10.4-6.2 3.6 0 4.9.5 7.3 3.1z"/></svg>