<svg xmlns="http://www.w3.org/2000/svg" width="682.667" height="682.667" viewBox="0 0 512 512" preserveAspectRatio="xMidYMid meet" xmlns:v="https://vecta.io/nano"><path d="M244 1.1C202.8 3.7 160.1 25 132.9 56.4 103.1 90.6 88.8 132.6 92 176c1.7 24 6.5 42.1 16.5 62.5 2.9 6 7.5 14.1 10.1 18 7.6 11.3 52.5 81.7 52.2 81.9-.2.2-4.8 1-10.3 2-31.8 5.8-63.3 15.4-83.1 25.4-11.1 5.6-23.9 14.8-31 22.4-15.9 16.7-19.1 34.2-9.9 53.6 10.2 21.5 41.7 41.1 85.8 53.2 27.9 7.6 55.4 12.2 90.2 15.1 21.1 1.8 68.5 1.5 91-.5 99.1-8.9 165-37.6 175.5-76.6 3-11.2.2-26-7-36.7-16.5-24.8-60.5-45.2-120.5-55.9l-10.3-2c-.2-.2 11-18 24.9-39.6l31.4-49.5c20.7-33.8 27.6-75.5 19.4-116.2C408.4 91 383 52.8 347.5 28.9 316.6 8 281.9-1.3 244 1.1zm45.3 32.7c13.5 3.5 30.1 11.1 42.3 19.2 9.8 6.6 29.4 26.2 35.6 35.6 10.6 16 17.5 32.3 21.4 50.4 2.7 12.1 2.7 42 0 54-4.5 20.4-10.8 34.1-27.8 60l-22.3 34.5L319 318l-60.4 94.8-2.7 4.3-56.1-87.8c-67.4-105.5-64.1-100.1-68.7-111.6-8.1-19.7-10.6-34.7-9.8-58 .6-18.7 3.1-30.6 9.7-46.4 13.9-33.4 39.4-58.8 73.5-73.3 18.2-7.8 31-10 55-9.5 16.2.3 19.2.6 29.8 3.3zm-72.2 376.8c30.4 47.8 30.9 48.4 39 48.4 7.7 0 8.7-1.2 38.8-48.6 26.3-41.2 28.5-44.4 31.1-44.4 4.8 0 31.6 4.8 44.8 8.1 37 9 66.8 23.7 76.6 37.6 3.6 5.3 4.6 12.5 2.2 17.2-9.4 18.1-48.9 36-100.6 45.5-45 8.3-114.7 10.1-160 4.1-65.6-8.6-115.5-28.2-126.5-49.5-1.9-3.7-2.2-10.8-.5-14 2.2-4.1 10.3-12.1 16.4-16.2 13.5-9.3 37.8-18.8 63.6-25 14.3-3.4 37.8-7.6 43.1-7.7l3.7-.1 28.3 44.6zm31.3-318.5c-34.6 3.3-63 31.4-66.3 65.6-2.5 25.5 6.7 48.7 25.6 64.8 13.4 11.5 29.8 17.5 47.5 17.6 11.6.1 18.8-1.3 28.8-5.4 9.2-3.7 10.7-4.7 19.4-11.6 26-20.9 34.3-58.3 19.6-88.9-5.1-10.7-11.2-18.5-19.7-25.3-8.8-7.2-10.8-8.3-19.6-11.8-11.4-4.6-22.9-6.2-35.3-5zm26.6 33c34.6 16.6 34.8 64.5.4 81.6-6.8 3.3-8.6 3.8-17 4.1-16.3.7-28.9-5-38.6-17.6-11.8-15.4-11.9-38.5-.3-54 4.9-6.5 8.6-9.7 15.5-13.2 8.1-4.2 12-5 22.5-4.7 9.1.2 10.6.5 17.5 3.8z"/></svg>