<?xml version="1.0" encoding="UTF-8"?>
<!DOCTYPE svg  PUBLIC '-//W3C//DTD SVG 1.1//EN'  'http://www.w3.org/Graphics/SVG/1.1/DTD/svg11.dtd'>
<svg clip-rule="evenodd" fill-rule="evenodd" image-rendering="optimizeQuality" shape-rendering="geometricPrecision" text-rendering="geometricPrecision" version="1.1" viewBox="0 0 512 512" xmlns="http://www.w3.org/2000/svg">
<path d="m376.5 52.5c19.208-1.9896 32.041 6.0104 38.5 24 0.667 119.33 0.667 238.67 0 358-6.43 18.139-19.263 25.972-38.5 23.5-15.244-4.579-24.078-14.745-26.5-30.5-12.373-24.047-28.873-44.88-49.5-62.5-28.891-21.932-61.557-33.432-98-34.5 2.059 30.608-12.275 44.941-43 43 0.167 20.336 0 40.669-0.5 61-3.905 12.237-12.071 20.071-24.5 23.5-11.667 0.667-23.333 0.667-35 0-14.7-3.369-23.2-12.535-25.5-27.5-0.5-33.332-0.6667-66.665-0.5-100-30.177 2.604-50.677-10.063-61.5-38-0.8816-3.289-1.5483-6.623-2-10-0.9252-20.038-0.59186-40.038 1-60 6.1401-23.14 20.974-36.973 44.5-41.5 52-0.333 104-0.667 156-1 49.137-4.146 88.637-25.646 118.5-64.5 6.667-10.667 13.333-21.333 20-32 2.624-15.781 11.457-26.114 26.5-31zm5 22c5.471-0.3442 9.305 1.9891 11.5 7 0.667 116 0.667 232 0 348-6.333 9.333-12.667 9.333-19 0-0.667-116-0.667-232 0-348 1.767-3.272 4.267-5.6053 7.5-7zm-31 50c1.166 87.166 1.332 174.5 0.5 262-30.608-42.903-72.108-68.403-124.5-76.5-22.304-1.396-44.637-1.896-67-1.5v-106c22.361 0.383 44.694-0.117 67-1.5 52.422-8.021 93.756-33.521 124-76.5zm-291 78h78v106c-26.002 0.167-52.002 0-78-0.5-16.97-3.639-26.136-14.139-27.5-31.5-0.8722-16.699-0.5389-33.365 1-50 4.3318-13.174 13.165-21.174 26.5-24zm36 128h42c0.167 33.002 0 66.002-0.5 99-1.122 2.124-2.622 3.957-4.5 5.5-9.258 1.584-18.591 1.917-28 1-3.125-0.979-5.6251-2.813-7.5-5.5-1.4646-33.292-1.9646-66.626-1.5-100zm64 0h21c2.345 16.322-4.655 23.322-21 21v-21z" fill="#fd5631" opacity=".962"/>
<path d="m487.5 137.5c11.495 0.332 15.662 5.999 12.5 17l-4.5 4.5c-14.877 7.605-29.877 14.939-45 22-10.344 0.655-14.844-4.178-13.5-14.5 0.792-2.087 1.959-3.921 3.5-5.5 15.759-7.879 31.425-15.713 47-23.5z" fill="#fd5631" opacity=".922"/>
<path d="m443.5 244.5c17.003-0.167 34.003 0 51 0.5 9.333 7 9.333 14 0 21-17 0.667-34 0.667-51 0-6.914-3.77-8.747-9.27-5.5-16.5 1.73-1.902 3.563-3.569 5.5-5z" fill="#fd5631" opacity=".948"/>
<path d="m444.5 329.5c3.107-0.149 6.107 0.351 9 1.5l42 21c6.277 4.83 7.443 10.663 3.5 17.5-3.292 2.987-7.125 4.153-11.5 3.5-15.789-7.395-31.456-15.061-47-23-6.338-8.53-5.005-15.364 4-20.5z" fill="#fd5631" opacity=".922"/>
</svg>
