<?xml version="1.0" encoding="UTF-8"?>
<!DOCTYPE svg  PUBLIC '-//W3C//DTD SVG 1.1//EN'  'http://www.w3.org/Graphics/SVG/1.1/DTD/svg11.dtd'>
<svg clip-rule="evenodd" fill-rule="evenodd" image-rendering="optimizeQuality" shape-rendering="geometricPrecision" text-rendering="geometricPrecision" version="1.1" viewBox="0 0 512 512" xmlns="http://www.w3.org/2000/svg">
<path d="m511.5 136.5v307c-1.872 3.029-4.539 5.195-8 6.5-165.33 0.667-330.67 0.667-496 0-3.4614-1.305-6.128-3.471-8-6.5v-307c1.7341-3.887 4.7341-6.387 9-7.5 12.329-0.5 24.662-0.667 37-0.5-0.1666-20.003 0-40.003 0.5-60 2.8448-6.1257 7.6782-8.7923 14.5-8 71.117 3.7462 136.12 25.413 195 65 60.695-40.842 127.7-62.342 201-64.5 4.073 1.0721 6.907 3.5721 8.5 7.5 0.5 19.997 0.667 39.997 0.5 60 12.338-0.167 24.671 0 37 0.5 4.266 1.113 7.266 3.613 9 7.5zm-441-50c62.878 5.1242 120.21 25.457 172 61 1.167 88.998 1.333 178 0.5 267-52.698-33.176-110.2-51.843-172.5-56v-272zm362 0h8v272c-62.31 4.16-119.81 22.826-172.5 56-0.833-89.002-0.667-178 0.5-267 49.644-33.771 104.31-54.104 164-61zm-409 67h22c-0.4908 74.391 0.0092 148.72 1.5 223 2.1005 2.967 4.9338 4.8 8.5 5.5 55.33 2.334 107.33 16.667 156 43-62.666 0.5-125.33 0.667-188 0.5v-272zm442 0h22v272c-62.668 0.167-125.33 0-188-0.5 50.499-26.389 104.17-41.389 161-45l3.5-3.5c1.491-74.276 1.991-148.61 1.5-223z" fill="#fd5631" opacity=".971"/>
</svg>
