<?xml version="1.0" encoding="UTF-8"?>
<!DOCTYPE svg  PUBLIC '-//W3C//DTD SVG 1.1//EN'  'http://www.w3.org/Graphics/SVG/1.1/DTD/svg11.dtd'>
<svg clip-rule="evenodd" fill-rule="evenodd" image-rendering="optimizeQuality" shape-rendering="geometricPrecision" text-rendering="geometricPrecision" version="1.1" viewBox="0 0 512 512" xmlns="http://www.w3.org/2000/svg">
<path d="m244.5 9.5c75.187-1.1883 132.02 30.145 170.5 94 24.532 47.855 28.865 97.521 13 149-15.265 44.387-38.098 84.22-68.5 119.5 20.356-1.838 33.689 6.829 40 26 6.907 22.053 13.407 44.22 19.5 66.5 1.066 17.267-6.434 29.1-22.5 35.5-92.298 1.654-184.63 1.988-277 1-17.143-3.811-26.476-14.478-28-32 6.6169-27.185 14.45-54.018 23.5-80.5 8.791-12.641 20.958-18.141 36.5-16.5-30.402-35.28-53.235-75.113-68.5-119.5-20.32-68.406-7.6537-129.74 38-184 33.628-35.397 74.795-55.064 123.5-59zm10 22c58.739 2.1076 104.24 27.441 136.5 76 25.722 44.344 30.722 91.011 15 140-12.316 35.98-30.316 68.646-54 98-26.536 32.202-56.036 61.369-88.5 87.5-3.945 3.406-8.279 4.072-13 2-45.443-34.773-83.943-75.939-115.5-123.5-18.73-29.135-31.064-60.802-37-95-7.2724-62.256 13.228-113.09 61.5-152.5 28.348-20.726 60.014-31.56 95-32.5zm-5 107c32.682 0.074 52.182 16.074 58.5 48 0.048 31.737-15.452 50.904-46.5 57.5-23.188 1.491-40.688-7.675-52.5-27.5-10.063-20.92-8.063-40.587 6-59 9.333-10.414 20.833-16.747 34.5-19zm-108 256c10.339-0.166 20.672 0 31 0.5 19.1 19.439 39.1 37.772 60 55 15.333 11.333 30.667 11.333 46 0 20.9-17.228 40.9-35.561 60-55 10.333-0.667 20.667-0.667 31 0 3.413 1.077 5.913 3.244 7.5 6.5 6.155 19.62 12.155 39.287 18 59 4.23 9.67 1.397 15.837-8.5 18.5-88.71 0.99-177.38 0.656-266-1-5.525-2.919-7.358-7.419-5.5-13.5 6.333-21 12.667-42 19-63 1.767-3.272 4.267-5.605 7.5-7z" fill="#fd5631" opacity=".949"/>
<path d="m245.5 116.5c39.204-1.92 66.371 15.08 81.5 51 9.506 37.162-1.327 66.662-32.5 88.5-35.973 18.032-68.139 12.865-96.5-15.5-20.593-27.831-22.926-57.165-7-88 12.979-19.903 31.146-31.903 54.5-36zm4 22c-13.667 2.253-25.167 8.586-34.5 19-14.063 18.413-16.063 38.08-6 59 11.812 19.825 29.312 28.991 52.5 27.5 31.048-6.596 46.548-25.763 46.5-57.5-6.318-31.926-25.818-47.926-58.5-48z" fill="#fd5631" opacity=".95"/>
</svg>
