<?xml version="1.0" encoding="UTF-8"?>
<!DOCTYPE svg  PUBLIC '-//W3C//DTD SVG 1.1//EN'  'http://www.w3.org/Graphics/SVG/1.1/DTD/svg11.dtd'>
<svg clip-rule="evenodd" fill-rule="evenodd" image-rendering="optimizeQuality" shape-rendering="geometricPrecision" text-rendering="geometricPrecision" version="1.1" viewBox="0 0 512 512" xmlns="http://www.w3.org/2000/svg">
<path d="m98.5 31.5c105-0.1667 210 0 315 0.5 15.297 4.9628 23.464 15.463 24.5 31.5 0.667 43 0.667 86 0 129-1.329 17.33-10.496 27.83-27.5 31.5-6.333 0.333-12.667 0.667-19 1-6.814 6.237-13.814 12.237-21 18-4.506 2.814-9.173 3.147-14 1l-19-19c-54.333-0.667-108.67-0.667-163 0l-19 19c-4.333 2-8.667 2-13 0l-19-19c-7.333-0.333-14.667-0.667-22-1-15.608-3.274-24.774-12.774-27.5-28.5-0.6667-45.333-0.6667-90.667 0-136 2.4009-14.518 10.568-23.852 24.5-28zm5 22c101.67-0.1667 203.33 0 305 0.5 3.5 0.8333 5.667 3 6.5 6.5 0.667 45 0.667 90 0 135-1.868 4.021-5.035 6.187-9.5 6.5-7.333 0.333-14.667 0.667-22 1-6.524 5.358-13.19 10.525-20 15.5-5.517-5.351-11.184-10.518-17-15.5-60.333-0.667-120.67-0.667-181 0-5.802 4.8-11.302 9.967-16.5 15.5-5.198-5.533-10.698-10.7-16.5-15.5-10.059-0.104-20.059-0.771-30-2-2.5-1.167-4.3333-3-5.5-5.5-0.6667-45.333-0.6667-90.667 0-136 1.4936-2.8135 3.66-4.8135 6.5-6z" fill="#fd5631" opacity=".954"/>
<path d="m188.5 116.5c11.287-0.434 15.787 4.899 13.5 16-3.277 5.609-8.11 7.442-14.5 5.5-7.196-4.328-8.696-10.162-4.5-17.5 1.812-1.477 3.645-2.81 5.5-4z" fill="#fd5631" opacity=".9"/>
<path d="m252.5 116.5c11.679-0.499 16.179 4.834 13.5 16-3.277 5.609-8.11 7.442-14.5 5.5-7.196-4.328-8.696-10.162-4.5-17.5 1.812-1.477 3.645-2.81 5.5-4z" fill="#fd5631" opacity=".893"/>
<path d="m316.5 116.5c11.668-0.51 16.168 4.824 13.5 16-3.277 5.609-8.11 7.442-14.5 5.5-6.011-3.7-7.844-8.866-5.5-15.5 1.494-2.814 3.66-4.814 6.5-6z" fill="#fd5631" opacity=".895"/>
<path d="m127.5 266.5c32.578-2.969 56.078 10.031 70.5 39 8.608 23.772 5.441 45.772-9.5 66 8.464 0.884 16.797 2.384 25 4.5 10.151 4.462 16.984 11.962 20.5 22.5 3.667 14.667 7.333 29.333 11 44 1.934 20.63-7.233 33.13-27.5 37.5-52.667 0.667-105.33 0.667-158 0-21.089-4.352-30.256-17.185-27.5-38.5 3.3333-13.333 6.6667-26.667 10-40 3.8333-14.5 13-23.667 27.5-27.5 6.3141-0.847 12.648-1.513 19-2-20.121-27.957-19.954-55.79 0.5-83.5 10.603-11.381 23.436-18.714 38.5-22zm4 22c32.812-0.021 48.979 16.312 48.5 49-7.037 25.687-23.87 37.187-50.5 34.5-24.249-7.66-35.083-24.16-32.5-49.5 4.782-18.283 16.282-29.617 34.5-34zm-58 107c44.06-0.484 88.06 0.016 132 1.5 4.719 3.264 7.553 7.764 8.5 13.5 3.167 12.667 6.333 25.333 9.5 38-0.884 5.629-4.217 8.796-10 9.5-51.379 0.982-102.71 0.649-154-1-4.9264-2.353-6.7598-6.186-5.5-11.5 3.1773-13.043 6.5107-26.043 10-39 1.6266-5.118 4.7933-8.785 9.5-11z" fill="#fd5631" opacity=".954"/>
<path d="m362.5 266.5c33.593-2.963 57.427 10.703 71.5 41 7.698 23.133 4.198 44.466-10.5 64 8.464 0.884 16.797 2.384 25 4.5 10.785 5.378 17.952 13.878 21.5 25.5 3.491 13.63 6.824 27.296 10 41 1.934 20.63-7.233 33.13-27.5 37.5-52.667 0.667-105.33 0.667-158 0-21.089-4.352-30.256-17.185-27.5-38.5 3.333-13.333 6.667-26.667 10-40 3.833-14.5 13-23.667 27.5-27.5 6.326-0.733 12.66-1.399 19-2-20.145-27.962-19.978-55.795 0.5-83.5 10.603-11.381 23.436-18.714 38.5-22zm5 22c32.295 0.461 48.128 16.794 47.5 49-7.062 25.72-23.895 37.22-50.5 34.5-24.083-7.758-34.917-24.258-32.5-49.5 4.898-18.735 16.732-30.068 35.5-34zm-58 107c43.727-0.484 87.394 0.016 131 1.5 4.705 3.226 7.538 7.726 8.5 13.5 3.167 12.667 6.333 25.333 9.5 38-0.884 5.629-4.217 8.796-10 9.5-51.379 0.982-102.71 0.649-154-1-4.621-2.077-6.455-5.577-5.5-10.5 3.408-15.635 7.741-30.968 13-46 2.426-1.952 4.926-3.619 7.5-5z" fill="#fd5631" opacity=".953"/>
</svg>
