<?xml version="1.0" encoding="UTF-8"?>
<!DOCTYPE svg  PUBLIC '-//W3C//DTD SVG 1.1//EN'  'http://www.w3.org/Graphics/SVG/1.1/DTD/svg11.dtd'>
<svg clip-rule="evenodd" fill-rule="evenodd" image-rendering="optimizeQuality" shape-rendering="geometricPrecision" text-rendering="geometricPrecision" version="1.1" viewBox="0 0 512 512" xmlns="http://www.w3.org/2000/svg">
<path d="m205.5 52.5c33.002-0.1666 66.002 0 99 0.5 13.39 3.0559 21.89 11.222 25.5 24.5 0.5 12.996 0.667 25.996 0.5 39 48.334-0.167 96.668 0 145 0.5 14.7 3.369 23.2 12.535 25.5 27.5 0.667 24 0.667 48 0 72-1.638 15.282-8.472 27.615-20.5 37-0.833 53.997-1.333 108-1.5 162-5.732 23.732-20.565 37.899-44.5 42.5-119.33 0.667-238.67 0.667-358 0-23.935-4.601-38.768-18.768-44.5-42.5-0.1667-54.003-0.6667-108-1.5-162-12.028-9.385-18.862-21.718-20.5-37-0.66667-24-0.66667-48 0-72 2.2995-14.965 10.8-24.131 25.5-27.5 48.332-0.5 96.666-0.667 145-0.5-0.167-13.004 0-26.004 0.5-39 3.683-12.849 11.85-21.182 24.5-25zm5 22c30.002-0.1666 60.002 0 90 0.5 3.833 1.1667 6.333 3.6667 7.5 7.5 0.5 11.328 0.667 22.662 0.5 34h-106c-0.167-11.338 0-22.672 0.5-34 1.353-3.8501 3.853-6.5168 7.5-8zm-170 64c144.39-0.495 288.72 5e-3 433 1.5 1.833 1.167 3.333 2.667 4.5 4.5 0.667 24.667 0.667 49.333 0 74-2.231 6.895-6.064 12.729-11.5 17.5-55.766 30.36-115.43 46.86-179 49.5 2.702-24.282-7.965-37.949-32-41-24.035 3.051-34.702 16.718-32 41-63.567-2.64-123.23-19.14-179-49.5-7.7764-6.72-11.943-15.22-12.5-25.5-0.6667-20.333-0.6667-40.667 0-61 0.4543-5.603 3.2876-9.27 8.5-11zm13 128c53.923 24.788 110.59 38.788 170 42-3.163 29.999 10.17 44.165 40 42.5 12.5-3.167 20.333-11 23.5-23.5 0.5-6.325 0.666-12.658 0.5-19 59.304-2.951 115.8-16.951 169.5-42 0.667 48 0.667 96 0 144-3.246 14.245-12.079 22.745-26.5 25.5-116.67 0.667-233.33 0.667-350 0-14.421-2.755-23.254-11.255-26.5-25.5-0.5-47.999-0.6667-95.999-0.5-144zm200 0c5.471-0.344 9.305 1.989 11.5 7 0.667 16.333 0.667 32.667 0 49-3.821 7.282-9.321 8.782-16.5 4.5-0.96-1.419-1.793-2.919-2.5-4.5-0.667-16.333-0.667-32.667 0-49 1.767-3.272 4.267-5.605 7.5-7z" fill="#fd5631" opacity=".961"/>
</svg>
