<?xml version="1.0" encoding="UTF-8"?>
<svg enable-background="new 0 0 420.1 45.5" version="1.1" viewBox="0 0 420.1 45.5" xml:space="preserve" xmlns="http://www.w3.org/2000/svg">
<style type="text/css">.st0{fill:#ffffff;}</style>
<path class="st0" d="m24.7 14.5 20.7 0.7c1.6 0 2.2-0.4 2.2-2.2l0.8-8c0-1.5-0.9-2.2-2.2-2.2l-44-0.3c-1.2-0.1-1.9 1-2.2 2.2l1.2 7.8c0.4 1.8 0.6 2.4 2.2 2.2l5.8 0.1c0.3 0 0.5 0.1 0.6 0.3 0.2 0.2 0.3 0.4 0.3 0.7l-1.1 25.8c-0.1 1.2 1 2.2 2.2 2.2l10.8-0.5c1.2-0.1 2.4-1 2.2-2.1-0.1-1.6-0.6-14.5-0.6-25.7 0.2-0.6 0.6-1 1.1-1z"/>
<path class="st0" d="m68.2 2.6-14.6-0.7c-0.7 0-1.2 0.3-1.7 0.8-0.4 0.4-0.7 1-0.6 1.7l0.2 3.4 0.7 15.2v3.5c0 4.9-0.3 9.5-4.6 9.5-3.3 0-3.7-2.9-3.7-6.4 0-1.3 0.1-2.8 0.1-4.2l0.1-5.5c0.1-0.6-0.2-1.2-0.6-1.7-0.4-0.4-1-0.6-1.6-0.6h-13.4c-0.9 0-1.7 0.7-1.6 1.6l0.3 1.6 0.8 5c0.1 0.9 0.7 1.6 1.6 1.6h0.4c0.5 0 1 0.4 1 0.9 1 11.4 5.4 17.3 16.5 17.3 15.6 0 18.8-8.3 18.7-22.4 0-2.6 0.1-5.3 0.1-7.6h0.1l1.7 0.1c1.2 0.1 2.1-0.9 2.1-2.2l0.3-8.5c0.1-0.5-0.4-2.3-2.3-2.4z"/>
<path class="st0" d="m85.3 43.1c3.1 0 5.2-0.6 7-2.6 0.1-0.1 0.2-0.1 0.3-0.1 0.1 0.1 0.2 0.2 0.2 0.3v0.3c0 0.4 0.1 0.8 0.5 1.2 0.3 0.3 0.7 0.4 1.2 0.4l13.3-0.6c0.8 0 1.5-0.6 1.5-1.5l0.6-9c0.1-0.4-0.1-0.8-0.4-1.2-0.3-0.3-0.7-0.4-1.2-0.4h-0.9c-0.9 0.1-1.7-0.6-1.7-1.5l0.8-23.1c0-1.2-1-2.2-2.2-2.2l-13.8 0.1c-10.6 0.1-20.5 8-20.4 20.6-0.2 9.4 5.5 19.3 15.2 19.3zm4.3-12.9c-3.5 0-4.9-2.8-4.9-5.9 0-4.1 2.4-8.7 5.6-8.7h1.6c0.5 0 1 0.4 1 0.9v0.1l-1.5 12.7c-0.1 0.5-0.4 1-1 1l-0.8-0.1z"/>
<path class="st0" d="m118.2 42.5 10.8-0.5c1.2-0.1 2.4-1 2.2-2.1-0.1-0.5-0.1-2.5-0.1-5.3 0-3.7 0.1-8.7 0.1-13.8 0-4.4 2.6-7.3 5.6-7.3 2.6 0 3.4 3.9 3.4 8.7 0 6.7-1.5 15.1-1.7 17v0.3c0 0.5 0.2 1 0.5 1.4 0.4 0.5 1 0.8 1.6 0.8l9.9 0.4c1.2 0.1 2.2-0.8 2.3-2.1 0.3-3.9 0.8-8.7 0.8-13.6 0-11.6-2.6-23.4-15.4-23.4-2.4 0-4.5 0.5-6.4 1.3v-0.3c0-0.6-0.2-1.2-0.6-1.6s-1-0.7-1.5-0.7l-15 0.3c-1.2-0.1-2 1-2.2 2.2l1.3 9.1c0.3 1.7 0.6 2.4 2.2 2.2l1.2-0.1c0.3 0 0.4 0.1 0.6 0.3s0.3 0.4 0.3 0.7l-2 23.8c-0.3 1.3 0.9 2.3 2.1 2.3z"/>
<path class="st0" d="m162 42.5 10.8-0.5c1.2-0.1 2.4-1 2.2-2.1-0.1-0.5-0.1-2.5-0.1-5.3 0-3.7 0.1-8.7 0.1-13.8 0-4.4 2.6-7.3 5.6-7.3 2.6 0 3.4 3.9 3.4 8.7 0 6.7-1.5 15.1-1.7 17v0.3c0 0.5 0.2 1 0.5 1.4 0.4 0.5 1 0.8 1.6 0.8l9.9 0.4c1.2 0.1 2.2-0.8 2.3-2.1 0.3-3.9 0.8-8.7 0.8-13.6 0-11.6-2.6-23.4-15.4-23.4-2.4 0-4.5 0.5-6.4 1.3v-0.3c0-0.6-0.2-1.2-0.6-1.6s-1-0.7-1.5-0.7l-15 0.3c-1.2-0.1-2 1-2.2 2.2l1.3 9.1c0.3 1.7 0.6 2.4 2.2 2.2l1.2-0.1c0.3 0 0.4 0.1 0.6 0.3s0.3 0.4 0.3 0.7l-2 23.8c-0.2 1.3 0.9 2.3 2.1 2.3z"/>
<path class="st0" d="m223.2 41.9c12.9 0 17.6-4.3 17.6-22.4 0.1-8.9 0.4-11.5 0.5-12.6 0.1-1.2-1-2.1-2.2-2.2l-10.9-0.5c-1.2 0-2.3 1-2.2 2.2l0.8 12.9v3.3c0 5-0.2 9.7-3.5 9.7-4.3 0-4.6-4.3-4.6-9.2 0-1.9 0.1-6.8 0.1-8.7l0.6-12.2c0.1-1.3-1-2.2-2.2-2.2l-14.9 0.9c-1.9 0.1-2.3 1.9-2.2 2.4l0.4 8.2c0.1 1.3 1 2.2 2.2 2.1l1.7-0.1c0.3 0 0.5 0.1 0.8 0.3 0.2 0.2 0.3 0.4 0.3 0.7l0.1 5.4c-0.1 19.7 4.6 22 17.6 22z"/>
<path class="st0" d="m249.6 42.5 10.8-0.5c1.2-0.1 2.4-1 2.2-2.1-0.1-0.5-0.1-2.5-0.1-5.3 0-3.7 0.1-8.7 0.1-13.8 0-4.4 2.6-7.3 5.6-7.3 2.6 0 3.4 3.9 3.4 8.7 0 6.7-1.5 15.1-1.7 17v0.3c0 0.5 0.2 1 0.5 1.4 0.4 0.5 1 0.8 1.6 0.8l9.9 0.4c1.2 0.1 2.2-0.8 2.3-2.1 0.3-3.9 0.8-8.7 0.8-13.6 0-11.6-2.6-23.4-15.4-23.4-2.4 0-4.5 0.5-6.4 1.3v-0.3c0-0.6-0.2-1.2-0.6-1.6s-1-0.7-1.5-0.7l-15 0.3c-1.2-0.1-2 1-2.2 2.2l1.3 9.1c0.3 1.7 0.6 2.4 2.2 2.2l1.2-0.1c0.3 0 0.4 0.1 0.6 0.3s0.3 0.4 0.3 0.7l-2 23.8c-0.2 1.3 0.9 2.3 2.1 2.3z"/>
<path class="st0" d="m310.6 42.9c3.1 0 5.9-0.3 9-0.6 0.6 0 1.2-0.3 1.5-0.8 0.4-0.5 0.5-1.1 0.5-1.7-0.1-2.3-0.4-5.1-0.5-7.4 0-1.2-1.1-2.1-2.2-2-1.7 0-2.8 2.4-8.8 2.4-6.2-0.2-7.4-4.8-7.4-10.9 0-5.3 1.5-9.9 6-10 1.9 0 1.7 0.8 1.7 2.6 0 0.8 0.8 1.3 1.6 1.3l10.4-0.6c0.4 0 0.9-0.1 1.2-0.5 0.3-0.3 0.4-0.8 0.4-1.2-1-9-8.4-11.2-16-11.3-12.8-0.3-19.8 6.3-19.8 19.9 0.1 15.5 12 20.8 22.4 20.8z"/>
<path class="st0" d="m343.5 12.7c1.3 0.1 2.5-1 2.6-2.4l0.4-7.1c0.1-0.7-0.2-1.3-0.7-1.9s-1.2-0.8-1.9-0.8l-9.8 0.6c-0.8 0.1-1.3 0.3-1.9 0.8-0.4 0.4-0.7 1-0.7 1.7v0.3l0.4 5.8c0.1 1.4 1.2 2.4 2.6 2.5l9 0.5zm-10.8 31.3 10.8-0.5c1.2-0.1 2.4-1 2.2-2.1-0.1-1.1-0.2-5.1-0.2-10.1 0-4.6 0.1-9.9 0.3-14.6 0-0.6-0.2-1.2-0.6-1.6s-0.9-0.7-1.5-0.7l-14.9-0.4c-1.2-0.1-1.9 1-2.2 2.2l1.3 8.6c0.4 1.7 0.6 2.4 2.2 2.2l1.2-0.1c0.3 0 0.5 0.1 0.6 0.3 0.2 0.2 0.3 0.4 0.3 0.7l-1.7 13.8c-0.2 1.2 1 2.3 2.2 2.3z"/>
<path class="st0" d="m363.7 43.4c0.6 0.1 1.2-0.3 1.6-0.6 0.4-0.4 0.6-1 0.6-1.7l-0.4-6.2c-0.1-1.2-1-2.1-2.2-2.1l-7.9 0.4c-1.2 0.1-2.2 1-2.2 2.2l-0.3 5.1c-0.1 0.6 0.1 1.2 0.6 1.7s1 0.6 1.6 0.7l8.6 0.5z"/>
<path class="st0" d="m386.7 12.7c1.3 0.1 2.5-1 2.6-2.4l0.4-7.1c0.1-0.7-0.2-1.3-0.7-1.9s-1.2-0.8-1.9-0.8l-9.8 0.6c-0.8 0.1-1.3 0.3-1.9 0.8-0.4 0.4-0.7 1-0.7 1.7v0.3l0.4 5.8c0.1 1.4 1.2 2.4 2.6 2.5l9 0.5zm-10.8 31.3 10.8-0.5c1.2-0.1 2.4-1 2.2-2.1-0.1-1.1-0.2-5.1-0.2-10.1 0-4.6 0.1-9.9 0.3-14.6 0-0.6-0.2-1.2-0.6-1.6s-0.9-0.7-1.5-0.7l-14.9-0.4c-1.2-0.1-1.9 1-2.2 2.2l1.3 8.6c0.4 1.7 0.6 2.4 2.2 2.2l1.2-0.1c0.3 0 0.5 0.1 0.6 0.3 0.2 0.2 0.3 0.4 0.3 0.7l-1.7 13.8c-0.2 1.2 1 2.3 2.2 2.3z"/>
<path class="st0" d="m410.5 42.8h6.8c1.5 0 2.8-0.6 2.8-2.2v-6c0-1.2-1-2.2-2.2-2.2-0.6 0-5.9 0-6.4-0.1-2.8-0.6-3.7-3.3-3.7-12.8 0-0.3 0.1-0.4 0.3-0.6s0.4-0.3 0.7-0.3h3.1c1.6 0 2.2-0.4 2.2-2.2l0.1-5.1c0-1-0.4-1.7-1-2-0.3-0.2-0.8-0.3-1.2-0.3h-3c-0.3 0-0.5-0.1-0.7-0.3-0.1-0.1-0.3-0.4-0.3-0.6v-0.1l0.3-5.3c0-1.2-1.1-2.2-2.3-2.2l-8.7 0.3c-1.3 0-2.1 1-2.2 2.3-0.1 4.2-1 10.3-1 16.4 0 0.9 0 1.8 0.1 2.7 0.7 18.2 4.3 20.4 16.3 20.6z"/>
</svg>