<svg xmlns="http://www.w3.org/2000/svg" xml:space="preserve" id="Logo" x="0" y="0" style="enable-background:new 0 0 350.8 49.2" version="1.1" viewBox="0 0 350.8 49.2"><style>.st0{fill:#0866ff}</style><path d="m26.8 16.3 20.7.7c1.6 0 2.2-.4 2.2-2.2l.8-8c0-1.5-.9-2.2-2.2-2.2l-44-.3c-1.2-.1-1.9 1-2.2 2.2l1.2 7.8c.4 1.8.6 2.4 2.2 2.2l5.8.1c.3 0 .5.1.6.3.2.2.3.4.3.7l-1.1 25.8c-.1 1.2 1 2.2 2.2 2.2l10.8-.5c1.2-.1 2.4-1 2.2-2.1-.1-1.6-.6-14.5-.6-25.7.2-.6.6-1 1.1-1z" class="st0"/><path d="M68.8 6.3c.1-1.2-1.1-2.1-2.2-2.1l-10.9-.5c-1.2 0-2.3 1-2.2 2.2l.8 18.8v3.5c0 4.9-.3 9.5-4.6 9.5-3.3 0-3.7-2.9-3.7-6.4 0-1.3.1-2.8.1-4.2l.1-5.5c.1-.6-.2-1.2-.6-1.7-.4-.4-1-.6-1.6-.6H30.6c-.9 0-1.7.7-1.6 1.6l.3 1.6.8 5c.1.9.7 1.6 1.6 1.6h.4c.5 0 1 .4 1 .9 1 11.4 5.4 17.3 16.5 17.3 15.6 0 18.8-8.3 18.7-22.4.1-8.9.4-17.4.5-18.6z" style="fill:#f97316"/><path d="M87.4 44.9c3.1 0 5.2-.6 7-2.6.1-.1.2-.1.3-.1.1.1.2.2.2.3v.3c0 .4.1.8.5 1.2.3.3.7.4 1.2.4l13.3-.6c.8 0 1.5-.6 1.5-1.5l.6-9c.1-.4-.1-.8-.4-1.2-.3-.3-.7-.4-1.2-.4h-.9c-.9.1-1.7-.6-1.7-1.5l.8-23.1c0-1.2-1-2.2-2.2-2.2L92.6 5c-10.6.1-20.5 8-20.4 20.6-.2 9.4 5.5 19.3 15.2 19.3zM91.7 32c-3.5 0-4.9-2.8-4.9-5.9 0-4.1 2.4-8.7 5.6-8.7H94c.5 0 1 .4 1 .9v.1l-1.5 12.7c-.1.5-.4 1-1 1l-.8-.1zM120.3 44.3l10.8-.5c1.2-.1 2.4-1 2.2-2.1-.1-.5-.1-2.5-.1-5.3 0-3.7.1-8.7.1-13.8 0-4.4 2.6-7.3 5.6-7.3 2.6 0 3.4 3.9 3.4 8.7 0 6.7-1.5 15.1-1.7 17v.3c0 .5.2 1 .5 1.4.4.5 1 .8 1.6.8l9.9.4c1.2.1 2.2-.8 2.3-2.1.3-3.9.8-8.7.8-13.6 0-11.6-2.6-23.4-15.4-23.4-2.4 0-4.5.5-6.4 1.3v-.3c0-.6-.2-1.2-.6-1.6-.4-.4-1-.7-1.5-.7l-15 .3c-1.2-.1-2 1-2.2 2.2l1.3 9.1c.3 1.7.6 2.4 2.2 2.2l1.2-.1c.3 0 .4.1.6.3s.3.4.3.7l-2 23.8c-.3 1.3.9 2.3 2.1 2.3zM164.1 44.3l10.8-.5c1.2-.1 2.4-1 2.2-2.1-.1-.5-.1-2.5-.1-5.3 0-3.7.1-8.7.1-13.8 0-4.4 2.6-7.3 5.6-7.3 2.6 0 3.4 3.9 3.4 8.7 0 6.7-1.5 15.1-1.7 17v.3c0 .5.2 1 .5 1.4.4.5 1 .8 1.6.8l9.9.4c1.2.1 2.2-.8 2.3-2.1.3-3.9.8-8.7.8-13.6 0-11.6-2.6-23.4-15.4-23.4-2.4 0-4.5.5-6.4 1.3v-.3c0-.6-.2-1.2-.6-1.6-.4-.4-1-.7-1.5-.7l-15 .3c-1.2-.1-2 1-2.2 2.2l1.3 9.1c.3 1.7.6 2.4 2.2 2.2l1.2-.1c.3 0 .4.1.6.3s.3.4.3.7L162 42c-.2 1.3.9 2.3 2.1 2.3zM225.3 43.7c12.9 0 17.6-4.3 17.6-22.4.1-8.9.4-11.5.5-12.6.1-1.2-1-2.1-2.2-2.2L230.3 6c-1.2 0-2.3 1-2.2 2.2l.8 12.9v3.3c0 5-.2 9.7-3.5 9.7-4.3 0-4.6-4.3-4.6-9.2 0-1.9.1-6.8.1-8.7l.6-12.2c.1-1.3-1-2.2-2.2-2.2l-14.9.9c-1.9.1-2.3 1.9-2.2 2.4l.4 8.2c.1 1.3 1 2.2 2.2 2.1l1.7-.1c.3 0 .5.1.8.3.2.2.3.4.3.7l.1 5.4c-.1 19.7 4.6 22 17.6 22zM251.7 44.3l10.8-.5c1.2-.1 2.4-1 2.2-2.1-.1-.5-.1-2.5-.1-5.3 0-3.7.1-8.7.1-13.8 0-4.4 2.6-7.3 5.6-7.3 2.6 0 3.4 3.9 3.4 8.7 0 6.7-1.5 15.1-1.7 17v.3c0 .5.2 1 .5 1.4.4.5 1 .8 1.6.8l9.9.4c1.2.1 2.2-.8 2.3-2.1.3-3.9.8-8.7.8-13.6 0-11.6-2.6-23.4-15.4-23.4-2.4 0-4.5.5-6.4 1.3v-.3c0-.6-.2-1.2-.6-1.6-.4-.4-1-.7-1.5-.7l-15 .3c-1.2-.1-2 1-2.2 2.2l1.3 9.1c.3 1.7.6 2.4 2.2 2.2l1.2-.1c.3 0 .4.1.6.3s.3.4.3.7l-2 23.8c-.2 1.3.9 2.3 2.1 2.3zM312.7 44.7c3.1 0 5.9-.3 9-.6.6 0 1.2-.3 1.5-.8.4-.5.5-1.1.5-1.7-.1-2.3-.4-5.1-.5-7.4 0-1.2-1.1-2.1-2.2-2-1.7 0-2.8 2.4-8.8 2.4-6.2-.2-7.4-4.8-7.4-10.9 0-5.3 1.5-9.9 6-10 1.9 0 1.7.8 1.7 2.6 0 .8.8 1.3 1.6 1.3l10.4-.6c.4 0 .9-.1 1.2-.5.3-.3.4-.8.4-1.2-1-9-8.4-11.2-16-11.3-12.8-.3-19.8 6.3-19.8 19.9.1 15.5 12 20.8 22.4 20.8zM345.6 14.5c1.3.1 2.5-1 2.6-2.4l.4-7.1c.1-.7-.2-1.3-.7-1.9s-1.2-.8-1.9-.8l-9.8.6c-.8.1-1.3.3-1.9.8-.4.4-.7 1-.7 1.7v.3l.4 5.8c.1 1.4 1.2 2.4 2.6 2.5l9 .5zm-10.8 31.3 10.8-.5c1.2-.1 2.4-1 2.2-2.1-.1-1.1-.2-5.1-.2-10.1 0-4.6.1-9.9.3-14.6 0-.6-.2-1.2-.6-1.6-.4-.4-.9-.7-1.5-.7l-14.9-.4c-1.2-.1-1.9 1-2.2 2.2l1.3 8.6c.4 1.7.6 2.4 2.2 2.2l1.2-.1c.3 0 .5.1.6.3.2.2.3.4.3.7l-1.7 13.8c-.2 1.2 1 2.3 2.2 2.3z" class="st0"/></svg>