<?xml version="1.0" encoding="UTF-8"?><svg viewBox="0 0 420.1 45.5" xmlns="http://www.w3.org/2000/svg"><path d="M24.7,14.5l20.7,.7c1.6,0,2.2-.4,2.2-2.2l.8-8c0-1.5-.9-2.2-2.2-2.2L2.2,2.5c-1.2-.1-1.9,1-2.2,2.2l1.2,7.8c.4,1.8,.6,2.4,2.2,2.2l5.8,.1c.3,0,.5,.1,.6,.3,.2,.2,.3,.4,.3,.7l-1.1,25.8c-.1,1.2,1,2.2,2.2,2.2l10.8-.5c1.2-.1,2.4-1,2.2-2.1-.1-1.6-.6-14.5-.6-25.7,.2-.6,.6-1,1.1-1Z" fill="#0866ff"/><path d="M68.25,2.64l-14.65-.74c-.65,0-1.25,.29-1.67,.75-.42,.4-.67,.97-.61,1.65l.23,3.4,.65,15.2v3.5c0,4.9-.3,9.5-4.6,9.5-3.3,0-3.7-2.9-3.7-6.4,0-1.3,.1-2.8,.1-4.2l.1-5.5c.1-.6-.2-1.2-.6-1.7-.4-.4-1-.6-1.6-.6h-13.4c-.9,0-1.7,.7-1.6,1.6l.3,1.6,.8,5c.1,.9,.7,1.6,1.6,1.6h.4c.5,0,1,.4,1,.9,1,11.4,5.4,17.3,16.5,17.3,15.6,0,18.8-8.3,18.7-22.4,.03-2.65,.08-5.26,.13-7.65,.03,0,.06-.02,.09-.02l1.69,.07c1.19,.08,2.07-.85,2.14-2.17l.23-8.3c.09-.51-.34-2.32-2.23-2.38Z" fill="#fd5631"/><path d="M85.3,43.1c3.1,0,5.2-.6,7-2.6,.1-.1,.2-.1,.3-.1,.1,.1,.2,.2,.2,.3v.3c0,.4,.1,.8,.5,1.2,.3,.3,.7,.4,1.2,.4l13.3-.6c.8,0,1.5-.6,1.5-1.5l.6-9c.1-.4-.1-.8-.4-1.2-.3-.3-.7-.4-1.2-.4h-.9c-.9,.1-1.7-.6-1.7-1.5l.8-23.1c0-1.2-1-2.2-2.2-2.2l-13.8,.1c-10.6,.1-20.5,8-20.4,20.6-.2,9.4,5.5,19.3,15.2,19.3h0Zm4.3-12.9c-3.5,0-4.9-2.8-4.9-5.9,0-4.1,2.4-8.7,5.6-8.7h1.6c.5,0,1,.4,1,.9v.1l-1.5,12.7c-.1,.5-.4,1-1,1l-.8-.1Z" fill="#0866ff"/><path d="M118.2,42.5l10.8-.5c1.2-.1,2.4-1,2.2-2.1-.1-.5-.1-2.5-.1-5.3,0-3.7,.1-8.7,.1-13.8,0-4.4,2.6-7.3,5.6-7.3,2.6,0,3.4,3.9,3.4,8.7,0,6.7-1.5,15.1-1.7,17v.3c0,.5,.2,1,.5,1.4,.4,.5,1,.8,1.6,.8l9.9,.4c1.2,.1,2.2-.8,2.3-2.1,.3-3.9,.8-8.7,.8-13.6,0-11.6-2.6-23.4-15.4-23.4-2.4,0-4.5,.5-6.4,1.3v-.3c0-.6-.2-1.2-.6-1.6-.4-.4-1-.7-1.5-.7l-15,.3c-1.2-.1-2,1-2.2,2.2l1.3,9.1c.3,1.7,.6,2.4,2.2,2.2l1.2-.1c.3,0,.4,.1,.6,.3s.3,.4,.3,.7l-2,23.8c-.3,1.3,.9,2.3,2.1,2.3h0Z" fill="#0866ff"/><path d="M162,42.5l10.8-.5c1.2-.1,2.4-1,2.2-2.1-.1-.5-.1-2.5-.1-5.3,0-3.7,.1-8.7,.1-13.8,0-4.4,2.6-7.3,5.6-7.3,2.6,0,3.4,3.9,3.4,8.7,0,6.7-1.5,15.1-1.7,17v.3c0,.5,.2,1,.5,1.4,.4,.5,1,.8,1.6,.8l9.9,.4c1.2,.1,2.2-.8,2.3-2.1,.3-3.9,.8-8.7,.8-13.6,0-11.6-2.6-23.4-15.4-23.4-2.4,0-4.5,.5-6.4,1.3v-.3c0-.6-.2-1.2-.6-1.6-.4-.4-1-.7-1.5-.7l-15,.3c-1.2-.1-2,1-2.2,2.2l1.3,9.1c.3,1.7,.6,2.4,2.2,2.2l1.2-.1c.3,0,.4,.1,.6,.3s.3,.4,.3,.7l-2,23.8c-.2,1.3,.9,2.3,2.1,2.3h0Z" fill="#0866ff"/><path d="M223.2,41.9c12.9,0,17.6-4.3,17.6-22.4,.1-8.9,.4-11.5,.5-12.6,.1-1.2-1-2.1-2.2-2.2l-10.9-.5c-1.2,0-2.3,1-2.2,2.2l.8,12.9v3.3c0,5-.2,9.7-3.5,9.7-4.3,0-4.6-4.3-4.6-9.2,0-1.9,.1-6.8,.1-8.7l.6-12.2c.1-1.3-1-2.2-2.2-2.2l-14.9,.9c-1.9,.1-2.3,1.9-2.2,2.4l.4,8.2c.1,1.3,1,2.2,2.2,2.1l1.7-.1c.3,0,.5,.1,.8,.3,.2,.2,.3,.4,.3,.7l.1,5.4c-.1,19.7,4.6,22,17.6,22h0Z" fill="#0866ff"/><path d="M249.6,42.5l10.8-.5c1.2-.1,2.4-1,2.2-2.1-.1-.5-.1-2.5-.1-5.3,0-3.7,.1-8.7,.1-13.8,0-4.4,2.6-7.3,5.6-7.3,2.6,0,3.4,3.9,3.4,8.7,0,6.7-1.5,15.1-1.7,17v.3c0,.5,.2,1,.5,1.4,.4,.5,1,.8,1.6,.8l9.9,.4c1.2,.1,2.2-.8,2.3-2.1,.3-3.9,.8-8.7,.8-13.6,0-11.6-2.6-23.4-15.4-23.4-2.4,0-4.5,.5-6.4,1.3v-.3c0-.6-.2-1.2-.6-1.6s-1-.7-1.5-.7l-15,.3c-1.2-.1-2,1-2.2,2.2l1.3,9.1c.3,1.7,.6,2.4,2.2,2.2l1.2-.1c.3,0,.4,.1,.6,.3s.3,.4,.3,.7l-2,23.8c-.2,1.3,.9,2.3,2.1,2.3h0Z" fill="#0866ff"/><path d="M310.6,42.9c3.1,0,5.9-.3,9-.6,.6,0,1.2-.3,1.5-.8,.4-.5,.5-1.1,.5-1.7-.1-2.3-.4-5.1-.5-7.4,0-1.2-1.1-2.1-2.2-2-1.7,0-2.8,2.4-8.8,2.4-6.2-.2-7.4-4.8-7.4-10.9,0-5.3,1.5-9.9,6-10,1.9,0,1.7,.8,1.7,2.6,0,.8,.8,1.3,1.6,1.3l10.4-.6c.4,0,.9-.1,1.2-.5,.3-.3,.4-.8,.4-1.2-1-9-8.4-11.2-16-11.3-12.8-.3-19.8,6.3-19.8,19.9,.1,15.5,12,20.8,22.4,20.8h0Z" fill="#0866ff"/><path d="M343.5,12.7c1.3,.1,2.5-1,2.6-2.4l.4-7.1c.1-.7-.2-1.3-.7-1.9s-1.2-.8-1.9-.8l-9.8,.6c-.8,.1-1.3,.3-1.9,.8-.4,.4-.7,1-.7,1.7v.3l.4,5.8c.1,1.4,1.2,2.4,2.6,2.5l9,.5Zm-10.8,31.3l10.8-.5c1.2-.1,2.4-1,2.2-2.1-.1-1.1-.2-5.1-.2-10.1,0-4.6,.1-9.9,.3-14.6,0-.6-.2-1.2-.6-1.6s-.9-.7-1.5-.7l-14.9-.4c-1.2-.1-1.9,1-2.2,2.2l1.3,8.6c.4,1.7,.6,2.4,2.2,2.2l1.2-.1c.3,0,.5,.1,.6,.3,.2,.2,.3,.4,.3,.7l-1.7,13.8c-.2,1.2,1,2.3,2.2,2.3h0Z" fill="#0866ff"/><path d="M363.7,43.4c.6,.1,1.2-.3,1.6-.6,.4-.4,.6-1,.6-1.7l-.4-6.2c-.1-1.2-1-2.1-2.2-2.1l-7.9,.4c-1.2,.1-2.2,1-2.2,2.2l-.3,5.1c-.1,.6,.1,1.2,.6,1.7s1,.6,1.6,.7l8.6,.5Z" fill="#ea5839"/><path d="M386.7,12.7c1.3,.1,2.5-1,2.6-2.4l.4-7.1c.1-.7-.2-1.3-.7-1.9s-1.2-.8-1.9-.8l-9.8,.6c-.8,.1-1.3,.3-1.9,.8-.4,.4-.7,1-.7,1.7v.3l.4,5.8c.1,1.4,1.2,2.4,2.6,2.5l9,.5Zm-10.8,31.3l10.8-.5c1.2-.1,2.4-1,2.2-2.1-.1-1.1-.2-5.1-.2-10.1,0-4.6,.1-9.9,.3-14.6,0-.6-.2-1.2-.6-1.6s-.9-.7-1.5-.7l-14.9-.4c-1.2-.1-1.9,1-2.2,2.2l1.3,8.6c.4,1.7,.6,2.4,2.2,2.2l1.2-.1c.3,0,.5,.1,.6,.3,.2,.2,.3,.4,.3,.7l-1.7,13.8c-.2,1.2,1,2.3,2.2,2.3h0Z" fill="#0866ff"/><path d="M410.5,42.8h6.8c1.5,0,2.8-.6,2.8-2.2v-6c0-1.2-1-2.2-2.2-2.2-.6,0-5.9,0-6.4-.1-2.8-.6-3.7-3.3-3.7-12.8,0-.3,.1-.4,.3-.6s.4-.3,.7-.3h3.1c1.6,0,2.2-.4,2.2-2.2l.1-5.1c0-1-.4-1.7-1-2-.3-.2-.8-.3-1.2-.3h-3c-.3,0-.5-.1-.7-.3-.1-.1-.3-.4-.3-.6v-.1l.3-5.3c0-1.2-1.1-2.2-2.3-2.2l-8.7,.3c-1.3,0-2.1,1-2.2,2.3-.1,4.2-1,10.3-1,16.4,0,.9,0,1.8,.1,2.7,.7,18.2,4.3,20.4,16.3,20.6h0Z" fill="#0866ff"/></svg>
